<svg xmlns="http://www.w3.org/2000/svg" viewBox="0 0 512 512">
<defs><linearGradient id="g" x1="0" y1="0" x2="1" y2="1"><stop stop-color="#fff15a"/><stop offset="1" stop-color="#ff3df2"/></linearGradient></defs>
<rect width="512" height="512" fill="#0b0713"/><rect x="48" y="48" width="416" height="416" rx="38" fill="url(#g)" opacity=".22"/>
<rect x="112" y="96" width="288" height="320" rx="22" fill="#fff15a" stroke="#fff" stroke-width="10"/>
<rect x="144" y="144" width="224" height="80" fill="#ff3df2"/><rect x="160" y="250" width="72" height="52" fill="#050505"/><rect x="280" y="250" width="72" height="52" fill="#050505"/>
<rect x="176" y="264" width="28" height="24" fill="#20ffe3"/><rect x="296" y="264" width="28" height="24" fill="#20ffe3"/>
<rect x="184" y="340" width="144" height="28" fill="#050505"/><rect x="222" y="370" width="68" height="18" fill="#050505"/>
<rect x="84" y="178" width="32" height="118" fill="#20ffe3"/><rect x="400" y="178" width="32" height="118" fill="#20ffe3"/>
<path d="M118 95 256 34 394 95" fill="#20ffe3" stroke="#fff" stroke-width="10"/>
<text x="256" y="470" text-anchor="middle" font-family="monospace" font-size="38" font-weight="900" fill="#fff">TRIPUNK</text>
</svg>